<mxfile host="app.diagrams.net" agent="Mozilla/5.0 (Windows NT 10.0; Win64; x64) AppleWebKit/537.36 (KHTML, like Gecko) Chrome/130.0.0.0 Safari/537.36" version="24.7.17">
  <diagram name="Trang-1" id="hCrmJaC8ZVUB6ZDhIk74">
    <mxGraphModel dx="819" dy="426" grid="1" gridSize="10" guides="1" tooltips="1" connect="1" arrows="1" fold="1" page="1" pageScale="1" pageWidth="827" pageHeight="1169" math="0" shadow="0">
      <root>
        <mxCell id="0" />
        <mxCell id="1" parent="0" />
        <mxCell id="ms1nnXt8dc_4RC6QhrJG-2" value="" style="rounded=0;whiteSpace=wrap;html=1;" vertex="1" parent="1">
          <mxGeometry x="170" y="250" width="500" height="360" as="geometry" />
        </mxCell>
        <mxCell id="ms1nnXt8dc_4RC6QhrJG-3" value="" style="rounded=0;whiteSpace=wrap;html=1;" vertex="1" parent="1">
          <mxGeometry x="210" y="280" width="300" height="290" as="geometry" />
        </mxCell>
        <mxCell id="ms1nnXt8dc_4RC6QhrJG-4" value="" style="rounded=0;whiteSpace=wrap;html=1;" vertex="1" parent="1">
          <mxGeometry x="240" y="310" width="210" height="200" as="geometry" />
        </mxCell>
        <mxCell id="ms1nnXt8dc_4RC6QhrJG-5" value="" style="rounded=0;whiteSpace=wrap;html=1;" vertex="1" parent="1">
          <mxGeometry x="250" y="340" width="150" height="120" as="geometry" />
        </mxCell>
        <mxCell id="ms1nnXt8dc_4RC6QhrJG-6" value="Pod" style="text;html=1;align=center;verticalAlign=middle;whiteSpace=wrap;rounded=0;" vertex="1" parent="1">
          <mxGeometry x="240" y="430" width="60" height="30" as="geometry" />
        </mxCell>
        <mxCell id="ms1nnXt8dc_4RC6QhrJG-7" value="" style="image;sketch=0;aspect=fixed;html=1;points=[];align=center;fontSize=12;image=img/lib/mscae/Docker.svg;" vertex="1" parent="1">
          <mxGeometry x="300" y="350" width="50" height="41" as="geometry" />
        </mxCell>
        <mxCell id="ms1nnXt8dc_4RC6QhrJG-8" value="Vault image" style="text;html=1;align=center;verticalAlign=middle;whiteSpace=wrap;rounded=0;" vertex="1" parent="1">
          <mxGeometry x="287.5" y="391" width="75" height="30" as="geometry" />
        </mxCell>
        <mxCell id="ms1nnXt8dc_4RC6QhrJG-9" value="Node" style="text;html=1;align=center;verticalAlign=middle;whiteSpace=wrap;rounded=0;" vertex="1" parent="1">
          <mxGeometry x="227.5" y="480" width="60" height="30" as="geometry" />
        </mxCell>
        <mxCell id="ms1nnXt8dc_4RC6QhrJG-10" value="Minikube" style="text;html=1;align=center;verticalAlign=middle;whiteSpace=wrap;rounded=0;" vertex="1" parent="1">
          <mxGeometry x="210" y="540" width="60" height="30" as="geometry" />
        </mxCell>
        <mxCell id="ms1nnXt8dc_4RC6QhrJG-11" value="" style="endArrow=classic;startArrow=classic;html=1;rounded=0;exitX=1;exitY=0.5;exitDx=0;exitDy=0;" edge="1" parent="1" source="ms1nnXt8dc_4RC6QhrJG-5">
          <mxGeometry width="50" height="50" relative="1" as="geometry">
            <mxPoint x="540" y="520" as="sourcePoint" />
            <mxPoint x="510" y="400" as="targetPoint" />
          </mxGeometry>
        </mxCell>
        <mxCell id="ms1nnXt8dc_4RC6QhrJG-12" value="port: 8200" style="text;html=1;align=center;verticalAlign=middle;whiteSpace=wrap;rounded=0;" vertex="1" parent="1">
          <mxGeometry x="395" y="370" width="50" height="30" as="geometry" />
        </mxCell>
        <mxCell id="ms1nnXt8dc_4RC6QhrJG-13" value="Local environment" style="text;html=1;align=center;verticalAlign=middle;whiteSpace=wrap;rounded=0;" vertex="1" parent="1">
          <mxGeometry x="170" y="585" width="102.5" height="30" as="geometry" />
        </mxCell>
        <mxCell id="ms1nnXt8dc_4RC6QhrJG-14" value="port: 30774" style="text;html=1;align=center;verticalAlign=middle;whiteSpace=wrap;rounded=0;" vertex="1" parent="1">
          <mxGeometry x="460" y="400" width="60" height="30" as="geometry" />
        </mxCell>
        <mxCell id="ms1nnXt8dc_4RC6QhrJG-15" value="" style="endArrow=classic;html=1;rounded=0;exitX=1;exitY=0.6;exitDx=0;exitDy=0;exitPerimeter=0;entryX=0.995;entryY=0.563;entryDx=0;entryDy=0;entryPerimeter=0;" edge="1" parent="1" source="ms1nnXt8dc_4RC6QhrJG-3" target="ms1nnXt8dc_4RC6QhrJG-2">
          <mxGeometry width="50" height="50" relative="1" as="geometry">
            <mxPoint x="550" y="510" as="sourcePoint" />
            <mxPoint x="600" y="460" as="targetPoint" />
          </mxGeometry>
        </mxCell>
        <mxCell id="ms1nnXt8dc_4RC6QhrJG-16" value="port: 59467" style="text;html=1;align=center;verticalAlign=middle;whiteSpace=wrap;rounded=0;" vertex="1" parent="1">
          <mxGeometry x="620" y="421" width="60" height="30" as="geometry" />
        </mxCell>
      </root>
    </mxGraphModel>
  </diagram>
</mxfile>
